<?xml version="1.0" encoding="UTF-8"?>
<svg id="Layer_1" data-name="Layer 1"
  xmlns="http://www.w3.org/2000/svg" version="1.1" viewBox="0 0 400 200">
  <defs>
    <style>
      .cls-1 {
        fill: #b5b5b5;
      }

      .cls-1, .cls-2, .cls-3 {
        stroke-width: 0px;
      }

      .cls-2 {
        fill: #9b9b9b;
      }

      .cls-3 {
        fill: #fff;
      }
    </style>
  </defs>
  <path class="cls-3" d="M180.9,7.8v129h7.1V7.8h-7.1Z"/>
  <path class="cls-3" d="M168.7,101.5H44.9c-5,11.8-10.1,23.7-15.4,36.1h8.9l11.5-27.1h56.9s0,0,0,0l11.9,27h29.8c-4.5-10.5-8.7-20.6-13.3-31.4h26.4v30.9h7.4c0,0,0-.1,0-.2v-34.3c-.1-.4-.3-.7-.4-.9Z"/>
  <path class="cls-1" d="M161.4,8v79h-34.5c-11.6-26.9-23-53.2-34.3-79.3h-27.8C46.3,50.9,27.9,93.9,9.2,137.5h9c6.6-15.4,13.1-30.7,19.8-46.4h131.1s0,0,0,0V8h-7.8ZM62.4,82.9l16.1-37,16.1,37h-32.2Z"/>
  <g>
    <path class="cls-3" d="M41.8,179.7h-8.4l-10.9-12.5h-6.8v12.5h-7.1v-37.5c5.9,0,11.9,0,17.8,0,8.8,0,13.5,5.9,13.5,12.4s-2.4,10.3-9.5,11.8l11.3,12.8v.5ZM15.7,148.9v12h10.7c4.5,0,6.4-3,6.4-6s-2-6-6.4-6h-10.7Z"/>
    <path class="cls-3" d="M71.3,172.7h-19.6l-3.2,7.1h-7.6l16.8-37.4h7.7l16.8,37.4h-7.7l-3.2-7.1ZM61.5,150.2l-6.9,15.9h13.9l-6.9-15.9Z"/>
    <path class="cls-3" d="M119.4,160.7c.2,9.5-5.6,19-18.7,19h-14.7v-37.4h14.7c12.8,0,18.5,9.1,18.7,18.4ZM93,172.9h7.7c8.5,0,11.9-6.2,11.7-12.3-.2-5.8-3.6-11.7-11.7-11.7h-7.7v23.9Z"/>
    <path class="cls-3" d="M124.7,179.7v-37.4h7v37.4h-7Z"/>
    <path class="cls-3" d="M176.2,161.2c-.1,9.7-6,19.3-19.2,19.3s-19.2-9.5-19.2-19.3,6.3-19.7,19.2-19.7,19.3,9.9,19.2,19.7ZM144.7,161.4c.2,6.1,3.5,12.7,12.3,12.7s12.1-6.6,12.2-12.8c.1-6.3-3.4-13.4-12.2-13.4s-12.5,7.1-12.3,13.4Z"/>
    <path class="cls-2" d="M199,168.7h-10.6v11h-7.1v-37.4c5.9,0,11.8,0,17.6,0,18.3,0,18.3,26.5,0,26.5ZM188.4,162.2h10.6c9,0,9-13.3,0-13.3h-10.6v13.3Z"/>
    <path class="cls-2" d="M224.6,142.3v30.9h19.2v6.5h-26.3v-37.4h7.1Z"/>
    <path class="cls-2" d="M275.4,172.7h-19.6l-3.2,7.1h-7.6l16.8-37.4h7.7l16.8,37.4h-7.7l-3.2-7.1ZM265.6,150.2l-6.9,15.9h13.9l-6.9-15.9Z"/>
    <path class="cls-2" d="M299,157.7l9.9-15.4h8.5v.3l-14.9,21.6v15.4h-7.1v-15.4l-14.4-21.6v-.3h8.4l9.5,15.4Z"/>
    <path class="cls-2" d="M348.4,179.7h-28v-37.4h28v6.8h-21v8.6h20.3v6.6h-20.3v8.4h21v6.9Z"/>
    <path class="cls-2" d="M387.1,179.7h-8.4l-10.9-12.5h-6.8v12.5h-7.1v-37.5c5.9,0,11.9,0,17.8,0,8.8,0,13.5,5.9,13.5,12.4s-2.4,10.3-9.5,11.8l11.3,12.8v.5ZM361,148.9v12h10.7c4.5,0,6.4-3,6.4-6s-2-6-6.4-6h-10.7Z"/>
  </g>
</svg>
