<?xml version="1.0" encoding="UTF-8"?>
<svg id="Layer_1" data-name="Layer 1"
  xmlns="http://www.w3.org/2000/svg" version="1.1" viewBox="0 0 700 400">
  <defs>
    <style>
      .cls-1 {
        fill: #b5b5b5;
      }

      .cls-1, .cls-2, .cls-3 {
        stroke-width: 0px;
      }

      .cls-2 {
        fill: #9b9b9b;
      }

      .cls-3 {
        fill: #fff;
      }
    </style>
  </defs>
  <path class="cls-3" d="M451.6,38.3v219h12.1V38.3h-12.1Z"/>
  <path class="cls-3" d="M430.9,197.3h-210.3c-8.5,20.1-17.1,40.2-26.1,61.3h15.1l19.6-46h96.5s0,0,0,0l20.2,45.8h50.6c-7.6-17.9-14.8-35-22.6-53.4h44.9v52.4h12.6c0-.1.1-.2.2-.4v-58.2c-.2-.7-.5-1.2-.7-1.6Z"/>
  <path class="cls-1" d="M418.4,38.6v134.2h-58.5c-19.7-45.6-39-90.3-58.2-134.7h-47.3c-31.4,73.3-62.7,146.3-94.4,220.4h15.3c11.2-26.1,22.3-52.1,33.7-78.7h222.5s0-.1,0-.2V38.6h-13.2ZM250.4,165.7l27.4-62.8,27.4,62.8h-54.7Z"/>
  <g>
    <path class="cls-3" d="M92.2,360.8h-14.2l-18.5-21.2h-11.5v21.2h-12v-63.6c10.1,0,20.1,0,30.2,0,15,0,22.9,10.1,22.9,21.1s-4,17.5-16.1,20l19.2,21.7v.8ZM47.9,308.4v20.3h18.2c7.6,0,10.9-5.1,10.9-10.2s-3.4-10.2-10.9-10.2h-18.2Z"/>
    <path class="cls-3" d="M142.2,348.8h-33.2l-5.4,12h-13l28.5-63.5h13.1l28.5,63.5h-13.1l-5.4-12ZM125.6,310.6l-11.8,27h23.6l-11.8-27Z"/>
    <path class="cls-3" d="M223.9,328.4c.3,16.1-9.5,32.3-31.8,32.3h-25v-63.5h25c21.8,0,31.5,15.5,31.8,31.2ZM179.1,349.2h13.1c14.4,0,20.1-10.5,19.9-20.9-.3-9.9-6.1-19.8-19.9-19.8h-13.1v40.7Z"/>
    <path class="cls-3" d="M232.9,360.8v-63.5h11.9v63.5h-11.9Z"/>
    <path class="cls-3" d="M320.4,329.3c-.2,16.4-10.3,32.9-32.6,32.9s-32.7-16.1-32.7-32.8,10.7-33.5,32.7-33.5,32.8,16.8,32.6,33.4ZM266.9,329.6c.3,10.4,5.9,21.6,20.9,21.6s20.6-11.3,20.8-21.7c.2-10.7-5.8-22.7-20.8-22.7s-21.1,12.1-20.9,22.8Z"/>
    <path class="cls-2" d="M359.1,342.1h-18v18.7h-12v-63.5c10,0,20,0,30,0,31,0,31.1,44.9,0,44.9ZM341.2,331.1h18c15.3,0,15.2-22.5,0-22.5h-18v22.5Z"/>
    <path class="cls-2" d="M402.5,297.2v52.5h32.7v11.1h-44.7v-63.5h12Z"/>
    <path class="cls-2" d="M488.8,348.8h-33.2l-5.4,12h-13l28.5-63.5h13.1l28.5,63.5h-13.1l-5.4-12ZM472.1,310.6l-11.8,27h23.6l-11.8-27Z"/>
    <path class="cls-2" d="M528.9,323.4l16.9-26.2h14.4v.5l-25.3,36.8v26.2h-12v-26.2l-24.4-36.8v-.5h14.2l16.2,26.2Z"/>
    <path class="cls-2" d="M612.8,360.8h-47.6v-63.5h47.6v11.6h-35.7v14.6h34.4v11.2h-34.4v14.3h35.7v11.8Z"/>
    <path class="cls-2" d="M678.4,360.8h-14.2l-18.5-21.2h-11.5v21.2h-12v-63.6c10.1,0,20.1,0,30.2,0,15,0,22.9,10.1,22.9,21.1s-4,17.5-16.1,20l19.2,21.7v.8ZM634.1,308.4v20.3h18.2c7.6,0,10.9-5.1,10.9-10.2s-3.4-10.2-10.9-10.2h-18.2Z"/>
  </g>
</svg>
